# xmcd CD database file
#
# Track frame offsets:
#	150
#	11808
#	25128
#	37407
#	47984
#	60046
#	77063
#	91231
#	101431
#	110574
#	121008
#	130529
#	143772
#	155077
#	171388
#	182664
#	193004
#	204619
#	214224
#	226205
#	240937
#	249844
#	253311
#	269254
#	282858
#	293215
#	302988
#	315248
#	328323
#
# Disc length: 4520 seconds
#
# Revision: 0
# Processed by: cddbd v1.5.2PL0 Copyright (c) Steve Scherf et al.
# Submitted via: CDex 1.51
#
DISCID=9e11a61d
DTITLE=Buddy Guy, Otis Rush, Ike Turner - Cobra - Snakebite II [CD1)
DYEAR=2009
DGENRE=Blues
TTITLE0=All Your Love (I Miss Loving)
TTITLE1=This Is The End (Altenate Take)
TTITLE2=Roll Your Moneymaker
TTITLE3=I'm Gonna Forget About You
TTITLE4=Something Else
TTITLE5=Groaning The Blues (Take 3)
TTITLE6=The Way You Been Treating Me
TTITLE7=My Love
TTITLE8=Messed Up
TTITLE9=I'll Just Keep Walkin'
TTITLE10=Irma Lee
TTITLE11=She's A Good 'Un (Take 4)
TTITLE12=Something Else
TTITLE13=I Can't Quit You Baby (Take 3)
TTITLE14=Rock And Roll Boogie (Alternate Take)
TTITLE15=Little Red Rooster
TTITLE16=Your Sure Can't Do (Alternate Take)
TTITLE17=Don't Leave Me
TTITLE18=Crying The Blues
TTITLE19=Three Times A Fool
TTITLE20=My Life Depends On You
TTITLE21=Double Trouble (Take 3)
TTITLE22=Call Me If You Need Me
TTITLE23=You've Got To Lose
TTITLE24=Fine Girl
TTITLE25=You Eat Too Much
TTITLE26=The Duke Walks
TTITLE27=Matchbox
TTITLE28=Unknown
EXTD=YEAR: 2009
EXTT0=
EXTT1=
EXTT2=
EXTT3=
EXTT4=
EXTT5=
EXTT6=
EXTT7=
EXTT8=
EXTT9=
EXTT10=
EXTT11=
EXTT12=
EXTT13=
EXTT14=
EXTT15=
EXTT16=
EXTT17=
EXTT18=
EXTT19=
EXTT20=
EXTT21=
EXTT22=
EXTT23=
EXTT24=
EXTT25=
EXTT26=
EXTT27=
EXTT28=
PLAYORDER=
